<svg width="16" height="16" viewBox="0 0 16 16" fill="none" xmlns="http://www.w3.org/2000/svg"><g filter="url(#rf6lb1dl6a)"><path opacity="0.01" fill="#008641" d="M3 3h10v10H3z"></path><path fill-rule="evenodd" clip-rule="evenodd" d="M14.286 16c.946 0 1.714-.768 1.714-1.714V1.714C16 .768 15.232 0 14.286 0H1.714C.768 0 0 .768 0 1.714v12.572C0 15.232.768 16 1.714 16h12.572z" fill="#008641"></path><path fill-rule="evenodd" clip-rule="evenodd" d="M8.281 5.97A1.01 1.01 0 0 0 7.965 4a1.011 1.011 0 0 0-.355 1.957c-.94 3.4-2.672 1.918-3.265.6a.308.308 0 0 0-.03-.053.872.872 0 0 0-.447-1.618.87.87 0 0 0-.868.871c0 .46.356.838.807.87a.272.272 0 0 0 .004.076l.638 3.289a.5.5 0 0 0 .491.405h6.05a.5.5 0 0 0 .491-.405l.636-3.278a.28.28 0 0 0 .003-.086h.012A.87.87 0 0 0 13 5.757a.87.87 0 0 0-.868-.871.871.871 0 0 0-.504 1.58.3.3 0 0 0-.054.077c-1.43 2.884-2.865.994-3.293-.572zm-3.438 4.845a.592.592 0 1 0 0 1.185h6.245a.593.593 0 1 0 0-1.185H4.843z" fill="url(#tza0vha8ib)"></path></g><defs><linearGradient id="tza0vha8ib" x1="8" y1="4" x2="8" y2="12" gradientUnits="userSpaceOnUse"><stop stop-color="#FE0"></stop><stop offset="1" stop-color="#EFD804"></stop></linearGradient><filter id="rf6lb1dl6a" x="0" y="0" width="16" height="16" filterUnits="userSpaceOnUse" color-interpolation-filters="sRGB"><feFlood flood-opacity="0" result="BackgroundImageFix"></feFlood><feBlend in="SourceGraphic" in2="BackgroundImageFix" result="shape"></feBlend><feColorMatrix in="SourceAlpha" values="0 0 0 0 0 0 0 0 0 0 0 0 0 0 0 0 0 0 127 0" result="hardAlpha"></feColorMatrix><feOffset dy="-1.6"></feOffset><feComposite in2="hardAlpha" operator="arithmetic" k2="-1" k3="1"></feComposite><feColorMatrix values="0 0 0 0 0 0 0 0 0 0 0 0 0 0 0 0 0 0 0.25 0"></feColorMatrix><feBlend in2="shape" result="effect1_innerShadow_10074_92983"></feBlend></filter></defs></svg>